<svg width="44" height="43" viewBox="0 0 44 43" fill="none" xmlns="http://www.w3.org/2000/svg">
<path d="M30.056 38.992C30.056 39.76 29.816 40.528 29.336 41.296C28.888 42.064 28.344 42.448 27.704 42.448C26.744 42.448 25.816 42.208 24.92 41.728C24.024 41.248 23.176 40.64 22.376 39.904C21.608 39.168 20.888 38.4 20.216 37.6C19.576 36.832 19.016 36.144 18.536 35.536C18.408 35.376 18.296 35.232 18.2 35.104C18.104 35.008 18.008 34.896 17.912 34.768C17.72 34.8 17.512 34.816 17.288 34.816C17.096 34.848 16.904 34.864 16.712 34.864C15.144 34.864 13.656 34.576 12.248 34C10.84 33.456 9.544 32.784 8.36 31.984C7.176 31.184 6.136 30.4 5.24 29.632C4.984 30.048 4.856 30.608 4.856 31.312C4.856 31.984 4.92 32.496 5.048 32.848C5.176 33.168 5.336 33.552 5.528 34C5.56 34.064 5.576 34.16 5.576 34.288C5.576 34.448 5.496 34.576 5.336 34.672C5.208 34.8 5.064 34.864 4.904 34.864C4.648 34.864 4.472 34.752 4.376 34.528C4.12 34.048 3.912 33.6 3.752 33.184C3.624 32.736 3.56 32.112 3.56 31.312C3.56 30.416 3.832 29.6 4.376 28.864C3.736 28.256 3.096 27.536 2.456 26.704C1.816 25.84 1.272 24.896 0.824 23.872C0.408 22.816 0.2 21.712 0.2 20.56C0.2 19.184 0.36 17.984 0.68 16.96C1.032 15.904 1.464 14.944 1.976 14.08C2.488 13.216 2.984 12.368 3.464 11.536C4.36 10.032 5.464 8.72 6.776 7.6C8.088 6.448 9.624 5.552 11.384 4.912C11.544 4.304 12.024 3.68 12.824 3.04C13.624 2.368 14.52 1.792 15.512 1.312C16.536 0.831998 17.464 0.591998 18.296 0.591998C19.896 0.591998 21.256 0.767998 22.376 1.12C23.496 1.472 24.424 2.08 25.16 2.944C25.576 3.424 26.008 3.952 26.456 4.528C26.904 5.072 27.288 5.616 27.608 6.16C28.312 7.376 28.824 8.928 29.144 10.816C29.464 12.704 29.624 14.592 29.624 16.48C29.624 17.152 29.64 17.824 29.672 18.496C29.704 19.168 29.72 19.824 29.72 20.464C29.72 21.2 29.672 21.92 29.576 22.624C29.512 23.296 29.352 23.92 29.096 24.496C28.488 25.936 27.72 27.2 26.792 28.288C25.896 29.376 24.984 30.448 24.056 31.504C23.576 32.048 22.904 32.592 22.04 33.136C21.208 33.68 20.296 34.112 19.304 34.432C19.4 34.528 19.48 34.64 19.544 34.768C19.96 35.28 20.456 35.888 21.032 36.592C21.608 37.328 22.248 38.048 22.952 38.752C23.656 39.456 24.408 40.032 25.208 40.48C26.008 40.928 26.84 41.152 27.704 41.152C28.12 41.152 28.392 40.896 28.52 40.384C28.68 39.904 28.76 39.44 28.76 38.992C28.76 38.832 28.728 38.688 28.664 38.56C28.632 38.432 28.536 38.368 28.376 38.368H26.312C26.088 38.368 25.896 38.256 25.736 38.032C25.608 37.84 25.544 37.632 25.544 37.408C25.544 36.992 25.72 36.784 26.072 36.784C26.136 36.784 26.344 36.8 26.696 36.832C27.048 36.896 27.4 36.944 27.752 36.976C28.104 37.04 28.312 37.072 28.376 37.072C29.016 37.072 29.448 37.232 29.672 37.552C29.928 37.872 30.056 38.352 30.056 38.992ZM28.376 16.48C28.376 14.72 28.12 13.072 27.608 11.536C27.096 9.968 26.488 8.608 25.784 7.456C25.464 6.944 25.224 6.448 25.064 5.968C24.904 5.488 24.648 5.04 24.296 4.624C23.656 3.888 22.888 3.2 21.992 2.56C21.096 1.92 19.976 1.6 18.632 1.6C18.12 1.6 17.496 1.744 16.76 2.032C16.056 2.32 15.368 2.672 14.696 3.088C14.024 3.504 13.496 3.936 13.112 4.384C14.616 4 16.248 3.808 18.008 3.808C20.088 3.808 21.752 4.224 23 5.056C24.28 5.888 24.92 7.296 24.92 9.28C24.92 12.096 24.344 14.304 23.192 15.904C22.04 17.472 20.104 18.256 17.384 18.256C16.584 18.256 15.832 18.016 15.128 17.536C14.424 17.024 13.848 16.4 13.4 15.664C12.984 14.896 12.776 14.144 12.776 13.408C12.776 12.64 12.952 11.888 13.304 11.152C13.656 10.384 14.136 9.76 14.744 9.28C15.352 8.768 16.008 8.512 16.712 8.512C17.064 8.512 17.352 8.576 17.576 8.704C17.832 8.832 18.12 8.976 18.44 9.136C18.728 9.264 18.872 9.456 18.872 9.712C18.872 9.872 18.792 10.016 18.632 10.144C18.504 10.24 18.328 10.272 18.104 10.24C17.848 10.176 17.624 10.096 17.432 10C17.272 9.872 17.032 9.808 16.712 9.808C15.976 9.808 15.336 10.208 14.792 11.008C14.28 11.776 14.024 12.576 14.024 13.408C14.024 13.952 14.184 14.496 14.504 15.04C14.824 15.584 15.24 16.048 15.752 16.432C16.264 16.784 16.808 16.96 17.384 16.96C18.952 16.96 20.152 16.752 20.984 16.336C21.816 15.888 22.392 15.184 22.712 14.224C23.064 13.232 23.24 11.936 23.24 10.336C23.24 8.672 22.776 7.584 21.848 7.072C20.952 6.528 19.672 6.256 18.008 6.256C14.808 6.256 12.152 6.928 10.04 8.272C7.96 9.616 6.28 11.344 5 13.456C4.52 14.256 4.04 14.944 3.56 15.52C3.112 16.096 2.744 16.768 2.456 17.536C2.168 18.272 2.024 19.28 2.024 20.56C2.024 22.096 2.36 23.488 3.032 24.736C3.704 25.984 4.456 27.04 5.288 27.904C6.152 27.136 7.176 26.56 8.36 26.176C9.576 25.76 10.696 25.552 11.72 25.552C12.264 25.552 12.888 25.632 13.592 25.792C14.296 25.952 14.936 26.16 15.512 26.416C16.12 26.672 16.52 26.928 16.712 27.184C17.352 28.08 17.752 29.04 17.912 30.064C18.072 31.056 18.312 32.032 18.632 32.992C19.528 32.768 20.376 32.448 21.176 32.032C21.976 31.584 22.584 31.104 23 30.592C23.928 29.568 24.712 28.528 25.352 27.472C25.992 26.384 26.6 25.152 27.176 23.776C27.592 22.752 27.896 21.632 28.088 20.416C28.28 19.168 28.376 17.856 28.376 16.48ZM16.424 33.232C15.848 32.688 15.288 32.128 14.744 31.552C14.232 30.976 13.704 30.336 13.16 29.632C13.032 29.408 12.744 29.264 12.296 29.2C11.848 29.104 11.368 29.056 10.856 29.056C10.376 29.024 9.944 29.008 9.56 29.008C8.952 29.008 8.392 28.992 7.88 28.96C7.368 28.896 6.92 28.896 6.536 28.96C7.72 29.952 9.144 30.912 10.808 31.84C12.504 32.736 14.376 33.2 16.424 33.232ZM38.5795 34.4943C37.3523 34.4943 36.3011 34.0625 35.4261 33.1989C34.5625 32.3352 34.1364 31.2898 34.1477 30.0625C34.1364 28.858 34.5625 27.8295 35.4261 26.9773C36.3011 26.1136 37.3523 25.6818 38.5795 25.6818C39.7386 25.6818 40.7614 26.1136 41.6477 26.9773C42.5455 27.8295 43 28.858 43.0114 30.0625C43 30.8807 42.7841 31.625 42.3636 32.2955C41.9545 32.9659 41.4148 33.5 40.7443 33.8977C40.0852 34.2955 39.3636 34.4943 38.5795 34.4943Z" fill="#3949AB"/>
</svg>
