<svg width="265" height="47" viewBox="0 0 265 47" fill="none" xmlns="http://www.w3.org/2000/svg">
<path d="M30.056 42.992C30.056 43.76 29.816 44.528 29.336 45.296C28.888 46.064 28.344 46.448 27.704 46.448C26.744 46.448 25.816 46.208 24.92 45.728C24.024 45.248 23.176 44.64 22.376 43.904C21.608 43.168 20.888 42.4 20.216 41.6C19.576 40.832 19.016 40.144 18.536 39.536C18.408 39.376 18.296 39.232 18.2 39.104C18.104 39.008 18.008 38.896 17.912 38.768C17.72 38.8 17.512 38.816 17.288 38.816C17.096 38.848 16.904 38.864 16.712 38.864C15.144 38.864 13.656 38.576 12.248 38C10.84 37.456 9.544 36.784 8.36 35.984C7.176 35.184 6.136 34.4 5.24 33.632C4.984 34.048 4.856 34.608 4.856 35.312C4.856 35.984 4.92 36.496 5.048 36.848C5.176 37.168 5.336 37.552 5.528 38C5.56 38.064 5.576 38.16 5.576 38.288C5.576 38.448 5.496 38.576 5.336 38.672C5.208 38.8 5.064 38.864 4.904 38.864C4.648 38.864 4.472 38.752 4.376 38.528C4.12 38.048 3.912 37.6 3.752 37.184C3.624 36.736 3.56 36.112 3.56 35.312C3.56 34.416 3.832 33.6 4.376 32.864C3.736 32.256 3.096 31.536 2.456 30.704C1.816 29.84 1.272 28.896 0.824 27.872C0.408 26.816 0.2 25.712 0.2 24.56C0.2 23.184 0.36 21.984 0.68 20.96C1.032 19.904 1.464 18.944 1.976 18.08C2.488 17.216 2.984 16.368 3.464 15.536C4.36 14.032 5.464 12.72 6.776 11.6C8.088 10.448 9.624 9.552 11.384 8.912C11.544 8.304 12.024 7.68 12.824 7.04C13.624 6.368 14.52 5.792 15.512 5.312C16.536 4.832 17.464 4.592 18.296 4.592C19.896 4.592 21.256 4.768 22.376 5.12C23.496 5.472 24.424 6.08 25.16 6.944C25.576 7.424 26.008 7.952 26.456 8.528C26.904 9.072 27.288 9.616 27.608 10.16C28.312 11.376 28.824 12.928 29.144 14.816C29.464 16.704 29.624 18.592 29.624 20.48C29.624 21.152 29.64 21.824 29.672 22.496C29.704 23.168 29.72 23.824 29.72 24.464C29.72 25.2 29.672 25.92 29.576 26.624C29.512 27.296 29.352 27.92 29.096 28.496C28.488 29.936 27.72 31.2 26.792 32.288C25.896 33.376 24.984 34.448 24.056 35.504C23.576 36.048 22.904 36.592 22.04 37.136C21.208 37.68 20.296 38.112 19.304 38.432C19.4 38.528 19.48 38.64 19.544 38.768C19.96 39.28 20.456 39.888 21.032 40.592C21.608 41.328 22.248 42.048 22.952 42.752C23.656 43.456 24.408 44.032 25.208 44.48C26.008 44.928 26.84 45.152 27.704 45.152C28.12 45.152 28.392 44.896 28.52 44.384C28.68 43.904 28.76 43.44 28.76 42.992C28.76 42.832 28.728 42.688 28.664 42.56C28.632 42.432 28.536 42.368 28.376 42.368H26.312C26.088 42.368 25.896 42.256 25.736 42.032C25.608 41.84 25.544 41.632 25.544 41.408C25.544 40.992 25.72 40.784 26.072 40.784C26.136 40.784 26.344 40.8 26.696 40.832C27.048 40.896 27.4 40.944 27.752 40.976C28.104 41.04 28.312 41.072 28.376 41.072C29.016 41.072 29.448 41.232 29.672 41.552C29.928 41.872 30.056 42.352 30.056 42.992ZM28.376 20.48C28.376 18.72 28.12 17.072 27.608 15.536C27.096 13.968 26.488 12.608 25.784 11.456C25.464 10.944 25.224 10.448 25.064 9.968C24.904 9.488 24.648 9.04 24.296 8.624C23.656 7.888 22.888 7.2 21.992 6.56C21.096 5.92 19.976 5.6 18.632 5.6C18.12 5.6 17.496 5.744 16.76 6.032C16.056 6.32 15.368 6.672 14.696 7.088C14.024 7.504 13.496 7.936 13.112 8.384C14.616 8 16.248 7.808 18.008 7.808C20.088 7.808 21.752 8.224 23 9.056C24.28 9.888 24.92 11.296 24.92 13.28C24.92 16.096 24.344 18.304 23.192 19.904C22.04 21.472 20.104 22.256 17.384 22.256C16.584 22.256 15.832 22.016 15.128 21.536C14.424 21.024 13.848 20.4 13.4 19.664C12.984 18.896 12.776 18.144 12.776 17.408C12.776 16.64 12.952 15.888 13.304 15.152C13.656 14.384 14.136 13.76 14.744 13.28C15.352 12.768 16.008 12.512 16.712 12.512C17.064 12.512 17.352 12.576 17.576 12.704C17.832 12.832 18.12 12.976 18.44 13.136C18.728 13.264 18.872 13.456 18.872 13.712C18.872 13.872 18.792 14.016 18.632 14.144C18.504 14.24 18.328 14.272 18.104 14.24C17.848 14.176 17.624 14.096 17.432 14C17.272 13.872 17.032 13.808 16.712 13.808C15.976 13.808 15.336 14.208 14.792 15.008C14.28 15.776 14.024 16.576 14.024 17.408C14.024 17.952 14.184 18.496 14.504 19.04C14.824 19.584 15.24 20.048 15.752 20.432C16.264 20.784 16.808 20.96 17.384 20.96C18.952 20.96 20.152 20.752 20.984 20.336C21.816 19.888 22.392 19.184 22.712 18.224C23.064 17.232 23.24 15.936 23.24 14.336C23.24 12.672 22.776 11.584 21.848 11.072C20.952 10.528 19.672 10.256 18.008 10.256C14.808 10.256 12.152 10.928 10.04 12.272C7.96 13.616 6.28 15.344 5 17.456C4.52 18.256 4.04 18.944 3.56 19.52C3.112 20.096 2.744 20.768 2.456 21.536C2.168 22.272 2.024 23.28 2.024 24.56C2.024 26.096 2.36 27.488 3.032 28.736C3.704 29.984 4.456 31.04 5.288 31.904C6.152 31.136 7.176 30.56 8.36 30.176C9.576 29.76 10.696 29.552 11.72 29.552C12.264 29.552 12.888 29.632 13.592 29.792C14.296 29.952 14.936 30.16 15.512 30.416C16.12 30.672 16.52 30.928 16.712 31.184C17.352 32.08 17.752 33.04 17.912 34.064C18.072 35.056 18.312 36.032 18.632 36.992C19.528 36.768 20.376 36.448 21.176 36.032C21.976 35.584 22.584 35.104 23 34.592C23.928 33.568 24.712 32.528 25.352 31.472C25.992 30.384 26.6 29.152 27.176 27.776C27.592 26.752 27.896 25.632 28.088 24.416C28.28 23.168 28.376 21.856 28.376 20.48ZM16.424 37.232C15.848 36.688 15.288 36.128 14.744 35.552C14.232 34.976 13.704 34.336 13.16 33.632C13.032 33.408 12.744 33.264 12.296 33.2C11.848 33.104 11.368 33.056 10.856 33.056C10.376 33.024 9.944 33.008 9.56 33.008C8.952 33.008 8.392 32.992 7.88 32.96C7.368 32.896 6.92 32.896 6.536 32.96C7.72 33.952 9.144 34.912 10.808 35.84C12.504 36.736 14.376 37.2 16.424 37.232ZM50.7841 26.6989V11.8182H59.1023V38H51.1591V33.125H50.8864C50.3068 34.7273 49.3182 36 47.9205 36.9432C46.5341 37.875 44.858 38.3409 42.892 38.3409C41.108 38.3409 39.5398 37.9318 38.1875 37.1136C36.8352 36.2955 35.7841 35.1534 35.0341 33.6875C34.2841 32.2102 33.9034 30.483 33.892 28.5057V11.8182H42.2273V26.8693C42.2386 28.2898 42.6136 29.4091 43.3523 30.2273C44.0909 31.0455 45.0966 31.4545 46.3693 31.4545C47.1989 31.4545 47.9432 31.2727 48.6023 30.9091C49.2727 30.5341 49.8011 29.9943 50.1875 29.2898C50.5852 28.5739 50.7841 27.7102 50.7841 26.6989ZM64.4077 38V11.8182H72.7429V38H64.4077ZM68.5838 8.76705C67.4134 8.76705 66.4077 8.38068 65.5668 7.60795C64.7259 6.82386 64.3054 5.88068 64.3054 4.77841C64.3054 3.6875 64.7259 2.75568 65.5668 1.98295C66.4077 1.19886 67.4134 0.806816 68.5838 0.806816C69.7656 0.806816 70.7713 1.19886 71.6009 1.98295C72.4418 2.75568 72.8622 3.6875 72.8622 4.77841C72.8622 5.88068 72.4418 6.82386 71.6009 7.60795C70.7713 8.38068 69.7656 8.76705 68.5838 8.76705ZM90.2699 38.4943C87.5085 38.4943 85.1392 37.9261 83.1619 36.7898C81.196 35.6534 79.6847 34.0739 78.6278 32.0511C77.571 30.017 77.0426 27.6648 77.0426 24.9943C77.0426 22.3125 77.571 19.9602 78.6278 17.9375C79.696 15.9034 81.2131 14.3182 83.179 13.1818C85.1563 12.0455 87.5142 11.4773 90.2528 11.4773C92.6733 11.4773 94.7813 11.9148 96.5767 12.7898C98.3835 13.6648 99.7926 14.9034 100.804 16.5057C101.827 18.0966 102.366 19.9659 102.423 22.1136H94.6335C94.4744 20.7727 94.0199 19.7216 93.2699 18.9602C92.5313 18.1989 91.5653 17.8182 90.3722 17.8182C89.4063 17.8182 88.5597 18.0909 87.8324 18.6364C87.1051 19.1705 86.5369 19.9659 86.1278 21.0227C85.7301 22.0682 85.5312 23.3636 85.5312 24.9091C85.5312 26.4545 85.7301 27.7614 86.1278 28.8295C86.5369 29.8864 87.1051 30.6875 87.8324 31.233C88.5597 31.767 89.4063 32.0341 90.3722 32.0341C91.1449 32.0341 91.8267 31.8693 92.4176 31.5398C93.0199 31.2102 93.5142 30.7273 93.9006 30.0909C94.2869 29.4432 94.5312 28.6591 94.6335 27.7386H102.423C102.344 29.8977 101.804 31.7841 100.804 33.3977C99.8153 35.0114 98.4233 36.267 96.6278 37.1648C94.8438 38.0511 92.7244 38.4943 90.2699 38.4943ZM114.206 31.1307L114.24 21.1932H115.399L122.763 11.8182H132.206L121.263 25.25H119.064L114.206 31.1307ZM106.689 38V3.09091H115.024V38H106.689ZM122.95 38L116.098 27.125L121.587 21.2102L132.581 38H122.95ZM166.291 24.896C166.323 25.152 166.339 25.424 166.339 25.712C166.339 25.968 166.339 26.224 166.339 26.48C166.339 27.856 166.211 29.216 165.955 30.56C165.699 31.872 165.299 32.944 164.755 33.776C164.531 34.096 164.243 34.576 163.891 35.216C163.539 35.856 163.187 36.32 162.835 36.608C161.683 37.568 160.291 38.304 158.659 38.816C157.059 39.36 155.411 39.744 153.715 39.968C152.019 40.192 150.467 40.304 149.059 40.304C147.587 40.304 146.211 40 144.931 39.392C143.683 38.816 142.451 38.192 141.235 37.52C140.595 38.128 139.875 38.624 139.075 39.008C138.307 39.392 137.475 39.584 136.579 39.584C135.683 39.584 134.803 39.52 133.939 39.392C133.107 39.296 132.419 39.024 131.875 38.576C131.331 38.128 131.059 37.44 131.059 36.512C131.059 36 131.363 35.52 131.971 35.072C132.579 34.592 133.283 34.24 134.083 34.016C134.339 33.952 134.611 33.904 134.899 33.872C135.187 33.808 135.523 33.776 135.907 33.776C136.163 33.776 136.419 33.792 136.675 33.824C136.931 33.856 137.219 33.92 137.539 34.016C138.115 34.176 138.675 34.4 139.219 34.688C139.795 34.944 140.355 35.232 140.899 35.552C141.539 34.912 142.099 34.16 142.579 33.296C143.091 32.432 143.539 31.52 143.923 30.56C142.707 30.208 141.555 29.616 140.467 28.784C139.379 27.952 138.483 26.976 137.779 25.856C137.107 24.704 136.771 23.52 136.771 22.304C136.771 20.736 137.139 19.168 137.875 17.6C138.611 16.032 139.587 14.592 140.803 13.28C142.051 11.968 143.443 10.928 144.979 10.16C146.515 9.36 148.099 8.96 149.731 8.96C152.227 8.96 154.515 9.376 156.595 10.208C158.707 11.008 160.515 12.256 162.019 13.952C163.555 15.616 164.675 17.728 165.379 20.288C165.507 20.704 165.667 21.328 165.859 22.16C166.051 22.96 166.195 23.872 166.291 24.896ZM163.363 26.336C163.395 25.888 163.411 25.456 163.411 25.04C163.443 24.592 163.459 24.16 163.459 23.744C163.459 22.944 163.411 22.208 163.315 21.536C163.219 20.864 163.027 20.304 162.739 19.856C162.483 19.44 162.291 19.024 162.163 18.608C162.035 18.192 161.875 17.728 161.683 17.216C161.491 16.704 161.139 16.128 160.627 15.488C159.923 14.56 159.123 13.824 158.227 13.28C157.363 12.736 156.563 12.16 155.827 11.552C155.123 10.944 154.323 10.528 153.427 10.304C152.531 10.048 151.443 9.92 150.163 9.92C148.755 9.92 147.395 10.304 146.083 11.072C144.803 11.808 143.651 12.8 142.627 14.048C141.635 15.296 140.835 16.656 140.227 18.128C139.651 19.568 139.363 20.992 139.363 22.4C139.363 23.36 139.507 24.384 139.795 25.472C140.083 26.56 140.627 27.472 141.427 28.208C141.811 28.56 142.243 28.848 142.723 29.072C143.235 29.296 143.747 29.472 144.259 29.6C144.515 28.864 144.739 28.144 144.931 27.44C145.123 26.704 145.299 26.016 145.459 25.376C145.747 24.32 146.211 23.072 146.851 21.632C147.523 20.16 148.275 18.832 149.107 17.648C148.979 17.616 148.851 17.6 148.723 17.6C148.595 17.568 148.467 17.552 148.339 17.552C147.923 17.552 147.507 17.616 147.091 17.744C146.675 17.872 146.243 18.032 145.795 18.224C145.411 18.416 145.091 18.768 144.835 19.28C144.611 19.76 144.403 20.224 144.211 20.672C144.051 21.12 143.859 21.344 143.635 21.344C143.539 21.344 143.411 21.264 143.251 21.104C143.027 20.848 142.915 20.528 142.915 20.144C142.915 19.856 142.979 19.568 143.107 19.28C143.267 18.96 143.443 18.656 143.635 18.368C143.987 17.824 144.403 17.456 144.883 17.264C145.363 17.072 145.907 16.896 146.515 16.736C146.995 16.64 147.507 16.592 148.051 16.592C148.627 16.592 149.203 16.64 149.779 16.736C150.323 16.096 150.883 15.568 151.459 15.152C152.035 14.736 152.579 14.528 153.091 14.528C153.731 14.528 154.275 14.8 154.723 15.344C154.915 15.536 155.011 15.76 155.011 16.016C155.011 16.24 154.915 16.352 154.723 16.352C154.563 16.352 154.387 16.24 154.195 16.016C153.843 15.664 153.475 15.488 153.091 15.488C152.739 15.488 152.371 15.632 151.987 15.92C151.603 16.208 151.235 16.592 150.883 17.072C151.619 17.328 152.115 17.616 152.371 17.936C153.075 18.736 153.603 19.568 153.955 20.432C154.339 21.264 154.531 22.144 154.531 23.072C154.531 23.84 154.387 24.688 154.099 25.616C152.979 29.136 150.243 30.896 145.891 30.896C145.795 30.896 145.699 30.896 145.603 30.896C145.507 30.864 145.411 30.848 145.315 30.848C144.931 31.84 144.483 32.816 143.971 33.776C143.491 34.704 142.931 35.568 142.291 36.368C143.315 36.976 144.371 37.52 145.459 38C146.579 38.48 147.779 38.72 149.059 38.72C151.331 38.72 153.443 38.256 155.395 37.328C157.347 36.368 159.123 35.232 160.723 33.92C161.651 33.152 162.307 32.096 162.691 30.752C163.075 29.376 163.299 27.904 163.363 26.336ZM152.611 25.28C152.803 24.64 152.899 24.032 152.899 23.456C152.899 22.528 152.707 21.648 152.323 20.816C151.971 19.984 151.539 19.312 151.027 18.8C150.739 18.512 150.451 18.272 150.163 18.08C149.459 19.264 148.819 20.608 148.243 22.112C147.699 23.584 147.299 24.8 147.043 25.76C146.883 26.368 146.691 27.024 146.467 27.728C146.243 28.432 145.987 29.152 145.699 29.888C145.859 29.888 146.019 29.904 146.179 29.936C146.339 29.936 146.483 29.936 146.611 29.936C148.403 29.936 149.747 29.504 150.643 28.64C151.539 27.776 152.195 26.656 152.611 25.28ZM139.459 36.56C138.691 36.176 137.875 35.84 137.011 35.552C136.339 35.36 135.827 35.264 135.475 35.264C135.091 35.264 134.851 35.376 134.755 35.6C134.691 35.792 134.659 36.032 134.659 36.32C134.659 36.768 134.691 37.072 134.755 37.232C134.851 37.392 134.979 37.472 135.139 37.472C135.331 37.472 135.587 37.424 135.907 37.328C136.259 37.2 136.659 37.136 137.107 37.136C137.555 37.136 137.971 37.088 138.355 36.992C138.771 36.864 139.139 36.72 139.459 36.56ZM176.741 38.4432C175.071 38.4432 173.588 38.1648 172.293 37.608C171.009 37.0398 169.991 36.1875 169.241 35.0511C168.503 33.9034 168.134 32.4659 168.134 30.7386C168.134 29.2841 168.389 28.0568 168.901 27.0568C169.412 26.0568 170.116 25.2443 171.014 24.6193C171.912 23.9943 172.946 23.5227 174.116 23.2045C175.287 22.875 176.537 22.6534 177.866 22.5398C179.355 22.4034 180.554 22.2614 181.463 22.1136C182.372 21.9545 183.031 21.733 183.44 21.4489C183.861 21.1534 184.071 20.7386 184.071 20.2045V20.1193C184.071 19.2443 183.77 18.5682 183.168 18.0909C182.565 17.6136 181.753 17.375 180.73 17.375C179.628 17.375 178.741 17.6136 178.071 18.0909C177.401 18.5682 176.974 19.2273 176.793 20.0682L169.105 19.7955C169.332 18.2045 169.918 16.7841 170.861 15.5341C171.815 14.2727 173.122 13.2841 174.781 12.5682C176.452 11.8409 178.457 11.4773 180.798 11.4773C182.469 11.4773 184.009 11.6761 185.418 12.0739C186.827 12.4602 188.054 13.0284 189.099 13.7784C190.145 14.517 190.952 15.4261 191.52 16.5057C192.099 17.5852 192.389 18.8182 192.389 20.2045V38H184.548V34.3523H184.344C183.878 35.2386 183.281 35.9886 182.554 36.6023C181.838 37.2159 180.991 37.6761 180.014 37.983C179.048 38.2898 177.957 38.4432 176.741 38.4432ZM179.315 32.9886C180.213 32.9886 181.02 32.8068 181.736 32.4432C182.463 32.0795 183.043 31.5795 183.474 30.9432C183.906 30.2955 184.122 29.5455 184.122 28.6932V26.2045C183.884 26.3295 183.594 26.4432 183.253 26.5455C182.923 26.6477 182.56 26.7443 182.162 26.8352C181.764 26.9261 181.355 27.0057 180.935 27.0739C180.514 27.142 180.111 27.2045 179.724 27.2614C178.94 27.3864 178.27 27.5795 177.713 27.8409C177.168 28.1023 176.747 28.4432 176.452 28.8636C176.168 29.2727 176.026 29.7614 176.026 30.3295C176.026 31.1932 176.332 31.8523 176.946 32.3068C177.571 32.7614 178.361 32.9886 179.315 32.9886ZM220.344 19.8125L212.69 20.017C212.611 19.4716 212.395 18.9886 212.043 18.5682C211.69 18.1364 211.23 17.8011 210.662 17.5625C210.105 17.3125 209.457 17.1875 208.719 17.1875C207.753 17.1875 206.929 17.3807 206.247 17.767C205.577 18.1534 205.247 18.6761 205.259 19.3352C205.247 19.8466 205.452 20.2898 205.872 20.6648C206.304 21.0398 207.071 21.3409 208.173 21.5682L213.219 22.5227C215.832 23.0227 217.776 23.8523 219.048 25.0114C220.332 26.1705 220.98 27.7045 220.991 29.6136C220.98 31.4091 220.446 32.9716 219.389 34.3011C218.344 35.6307 216.912 36.6648 215.094 37.4034C213.276 38.1307 211.196 38.4943 208.855 38.4943C205.116 38.4943 202.168 37.7273 200.009 36.1932C197.861 34.6477 196.634 32.5795 196.327 29.9886L204.56 29.7841C204.741 30.7386 205.213 31.4659 205.974 31.9659C206.736 32.4659 207.707 32.7159 208.889 32.7159C209.957 32.7159 210.827 32.517 211.497 32.1193C212.168 31.7216 212.509 31.1932 212.52 30.5341C212.509 29.9432 212.247 29.4716 211.736 29.1193C211.224 28.7557 210.423 28.4716 209.332 28.267L204.764 27.3977C202.139 26.9205 200.185 26.0398 198.901 24.7557C197.616 23.4602 196.98 21.8125 196.991 19.8125C196.98 18.0625 197.446 16.5682 198.389 15.3295C199.332 14.0795 200.673 13.125 202.412 12.4659C204.151 11.8068 206.202 11.4773 208.565 11.4773C212.111 11.4773 214.906 12.2216 216.952 13.7102C218.997 15.1875 220.128 17.2216 220.344 19.8125ZM233.43 23.0682V38H225.095V3.09091H233.158V16.625H233.447C234.038 15.0114 235.004 13.75 236.345 12.8409C237.697 11.9318 239.351 11.4773 241.305 11.4773C243.146 11.4773 244.749 11.8864 246.112 12.7045C247.476 13.5114 248.533 14.6534 249.283 16.1307C250.044 17.608 250.419 19.3352 250.408 21.3125V38H242.072V22.9489C242.084 21.4943 241.72 20.358 240.982 19.5398C240.243 18.7216 239.203 18.3125 237.862 18.3125C236.987 18.3125 236.214 18.5057 235.544 18.892C234.885 19.267 234.368 19.8068 233.993 20.5114C233.629 21.2159 233.442 22.0682 233.43 23.0682ZM260.298 38.4943C259.071 38.4943 258.02 38.0625 257.145 37.1989C256.281 36.3352 255.855 35.2898 255.866 34.0625C255.855 32.858 256.281 31.8295 257.145 30.9773C258.02 30.1136 259.071 29.6818 260.298 29.6818C261.457 29.6818 262.48 30.1136 263.366 30.9773C264.264 31.8295 264.719 32.858 264.73 34.0625C264.719 34.8807 264.503 35.625 264.082 36.2955C263.673 36.9659 263.134 37.5 262.463 37.8977C261.804 38.2955 261.082 38.4943 260.298 38.4943Z" fill="#3949AB"/>
</svg>
